<svg version="1.1" xmlns="http://www.w3.org/2000/svg" xmlns:xlink="http://www.w3.org/1999/xlink" width="612" height="716"><defs/><g><g transform="translate(-198,-94) scale(1,1)"><path fill="#C0C0C0" stroke="none" d="M 215 121 L 796 121 L 796 806 L 215 806" opacity="0.2"/></g><g transform="translate(-198,-94) scale(1,1)"><path fill="#C0C0C0" stroke="none" d="M 215 121 L 225 111 L 806 111 L 796 121" opacity="0.2"/></g><g transform="translate(-198,-94) scale(1,1)"><path fill="#C0C0C0" stroke="none" d="M 806 111 L 796 121 L 796 806 L 806 796" opacity="0.2"/></g><g transform="translate(-198,-94) scale(1,1)"><path fill="#ffffff" stroke="none" d="M 208 114 L 789 114 L 789 799 L 208 799"/></g><g transform="translate(-198,-94) scale(1,1)"><path fill="#ffffff" stroke="none" d="M 208 114 L 218 104 L 799 104 L 789 114"/></g><g transform="translate(-198,-94) scale(1,1)"><path fill="#ffffff" stroke="none" d="M 799 104 L 789 114 L 789 799 L 799 789"/></g><g transform="translate(-198,-94) scale(1,1)"><path fill="none" stroke="#000000" d="M 208 114 L 789 114 L 789 799 L 208 799 L 208 114" stroke-miterlimit="10"/></g><g transform="translate(-198,-94) scale(1,1)"><path fill="none" stroke="#000000" d="M 208 114 L 218 104 L 799 104 L 789 114 L 208 114" stroke-miterlimit="10"/></g><g transform="translate(-198,-94) scale(1,1)"><path fill="none" stroke="#000000" d="M 799 104 L 789 114 L 789 799 L 799 789 L 799 104" stroke-miterlimit="10"/></g><g transform="translate(-198,-94) scale(1,1)"><g><path fill="none" stroke="none"/><text fill="#000000" stroke="none" font-family="Arial" font-size="13px" font-style="normal" font-weight="bold" text-decoration="none" x="478.760498046875" y="133.5">appear</text></g></g><g transform="translate(-198,-94) scale(1,1)"><path fill="#C0C0C0" stroke="none" d="M 543 433 L 763 433 L 763 749 L 543 749" opacity="0.2"/></g><g transform="translate(-198,-94) scale(1,1)"><path fill="#C0C0C0" stroke="none" d="M 543 433 L 553 423 L 773 423 L 763 433" opacity="0.2"/></g><g transform="translate(-198,-94) scale(1,1)"><path fill="#C0C0C0" stroke="none" d="M 773 423 L 763 433 L 763 749 L 773 739" opacity="0.2"/></g><g transform="translate(-198,-94) scale(1,1)"><path fill="#ffffff" stroke="none" d="M 536 426 L 756 426 L 756 742 L 536 742"/></g><g transform="translate(-198,-94) scale(1,1)"><path fill="#ffffff" stroke="none" d="M 536 426 L 546 416 L 766 416 L 756 426"/></g><g transform="translate(-198,-94) scale(1,1)"><path fill="#ffffff" stroke="none" d="M 766 416 L 756 426 L 756 742 L 766 732"/></g><g transform="translate(-198,-94) scale(1,1)"><path fill="none" stroke="#000000" d="M 536 426 L 756 426 L 756 742 L 536 742 L 536 426" stroke-miterlimit="10"/></g><g transform="translate(-198,-94) scale(1,1)"><path fill="none" stroke="#000000" d="M 536 426 L 546 416 L 766 416 L 756 426 L 536 426" stroke-miterlimit="10"/></g><g transform="translate(-198,-94) scale(1,1)"><path fill="none" stroke="#000000" d="M 766 416 L 756 426 L 756 742 L 766 732 L 766 416" stroke-miterlimit="10"/></g><g transform="translate(-198,-94) scale(1,1)"><g><path fill="none" stroke="none"/><text fill="#000000" stroke="none" font-family="Arial" font-size="13px" font-style="normal" font-weight="bold" text-decoration="none" x="632.77001953125" y="445.5">docs</text></g></g><g transform="translate(-198,-94) scale(1,1)"><path fill="#C0C0C0" stroke="none" d="M 247 425 L 467 425 L 467 541 L 247 541" opacity="0.2"/></g><g transform="translate(-198,-94) scale(1,1)"><path fill="#C0C0C0" stroke="none" d="M 247 425 L 257 415 L 477 415 L 467 425" opacity="0.2"/></g><g transform="translate(-198,-94) scale(1,1)"><path fill="#C0C0C0" stroke="none" d="M 477 415 L 467 425 L 467 541 L 477 531" opacity="0.2"/></g><g transform="translate(-198,-94) scale(1,1)"><path fill="#ffffff" stroke="none" d="M 240 418 L 460 418 L 460 534 L 240 534"/></g><g transform="translate(-198,-94) scale(1,1)"><path fill="#ffffff" stroke="none" d="M 240 418 L 250 408 L 470 408 L 460 418"/></g><g transform="translate(-198,-94) scale(1,1)"><path fill="#ffffff" stroke="none" d="M 470 408 L 460 418 L 460 534 L 470 524"/></g><g transform="translate(-198,-94) scale(1,1)"><path fill="none" stroke="#000000" d="M 240 418 L 460 418 L 460 534 L 240 534 L 240 418" stroke-miterlimit="10"/></g><g transform="translate(-198,-94) scale(1,1)"><path fill="none" stroke="#000000" d="M 240 418 L 250 408 L 470 408 L 460 418 L 240 418" stroke-miterlimit="10"/></g><g transform="translate(-198,-94) scale(1,1)"><path fill="none" stroke="#000000" d="M 470 408 L 460 418 L 460 534 L 470 524 L 470 408" stroke-miterlimit="10"/></g><g transform="translate(-198,-94) scale(1,1)"><g><path fill="none" stroke="none"/><text fill="#000000" stroke="none" font-family="Arial" font-size="13px" font-style="normal" font-weight="bold" text-decoration="none" x="340.023193359375" y="437.5">test</text></g></g><g transform="translate(-198,-94) scale(1,1)"><path fill="#C0C0C0" stroke="none" d="M 679 561 L 729.630859375 561 L 729.630859375 594 L 679 594" opacity="0.2"/></g><g transform="translate(-198,-94) scale(1,1)"><path fill="#C0C0C0" stroke="none" d="M 679 561 L 689 551 L 739.630859375 551 L 729.630859375 561" opacity="0.2"/></g><g transform="translate(-198,-94) scale(1,1)"><path fill="#C0C0C0" stroke="none" d="M 739.630859375 551 L 729.630859375 561 L 729.630859375 594 L 739.630859375 584" opacity="0.2"/></g><g transform="translate(-198,-94) scale(1,1)"><path fill="#ffffff" stroke="none" d="M 672 554 L 722.630859375 554 L 722.630859375 587 L 672 587"/></g><g transform="translate(-198,-94) scale(1,1)"><path fill="#ffffff" stroke="none" d="M 672 554 L 682 544 L 732.630859375 544 L 722.630859375 554"/></g><g transform="translate(-198,-94) scale(1,1)"><path fill="#ffffff" stroke="none" d="M 732.630859375 544 L 722.630859375 554 L 722.630859375 587 L 732.630859375 577"/></g><g transform="translate(-198,-94) scale(1,1)"><path fill="none" stroke="#000000" d="M 672 554 L 722.630859375 554 L 722.630859375 587 L 672 587 L 672 554" stroke-miterlimit="10"/></g><g transform="translate(-198,-94) scale(1,1)"><path fill="none" stroke="#000000" d="M 672 554 L 682 544 L 732.630859375 544 L 722.630859375 554 L 672 554" stroke-miterlimit="10"/></g><g transform="translate(-198,-94) scale(1,1)"><path fill="none" stroke="#000000" d="M 732.630859375 544 L 722.630859375 554 L 722.630859375 587 L 732.630859375 577 L 732.630859375 544" stroke-miterlimit="10"/></g><g transform="translate(-198,-94) scale(1,1)"><g><path fill="none" stroke="none"/><text fill="#000000" stroke="none" font-family="Arial" font-size="13px" font-style="normal" font-weight="bold" text-decoration="none" x="679.035888671875" y="573.5">scripts</text></g></g><g transform="translate(-198,-94) scale(1,1)"><path fill="#C0C0C0" stroke="none" d="M 679 473 L 726.72998046875 473 L 726.72998046875 506 L 679 506" opacity="0.2"/></g><g transform="translate(-198,-94) scale(1,1)"><path fill="#C0C0C0" stroke="none" d="M 679 473 L 689 463 L 736.72998046875 463 L 726.72998046875 473" opacity="0.2"/></g><g transform="translate(-198,-94) scale(1,1)"><path fill="#C0C0C0" stroke="none" d="M 736.72998046875 463 L 726.72998046875 473 L 726.72998046875 506 L 736.72998046875 496" opacity="0.2"/></g><g transform="translate(-198,-94) scale(1,1)"><path fill="#ffffff" stroke="none" d="M 672 466 L 719.72998046875 466 L 719.72998046875 499 L 672 499"/></g><g transform="translate(-198,-94) scale(1,1)"><path fill="#ffffff" stroke="none" d="M 672 466 L 682 456 L 729.72998046875 456 L 719.72998046875 466"/></g><g transform="translate(-198,-94) scale(1,1)"><path fill="#ffffff" stroke="none" d="M 729.72998046875 456 L 719.72998046875 466 L 719.72998046875 499 L 729.72998046875 489"/></g><g transform="translate(-198,-94) scale(1,1)"><path fill="none" stroke="#000000" d="M 672 466 L 719.72998046875 466 L 719.72998046875 499 L 672 499 L 672 466" stroke-miterlimit="10"/></g><g transform="translate(-198,-94) scale(1,1)"><path fill="none" stroke="#000000" d="M 672 466 L 682 456 L 729.72998046875 456 L 719.72998046875 466 L 672 466" stroke-miterlimit="10"/></g><g transform="translate(-198,-94) scale(1,1)"><path fill="none" stroke="#000000" d="M 729.72998046875 456 L 719.72998046875 466 L 719.72998046875 499 L 729.72998046875 489 L 729.72998046875 456" stroke-miterlimit="10"/></g><g transform="translate(-198,-94) scale(1,1)"><g><path fill="none" stroke="none"/><text fill="#000000" stroke="none" font-family="Arial" font-size="13px" font-style="normal" font-weight="bold" text-decoration="none" x="682.273193359375" y="485.5">fonts</text></g></g><g transform="translate(-198,-94) scale(1,1)"><path fill="#C0C0C0" stroke="none" d="M 447.6236328125 287 L 475.0636328125 287 L 486.82363281249997 298.76 L 486.82363281249997 336 L 447.6236328125 336" opacity="0.2"/></g><g transform="translate(-198,-94) scale(1,1)"><path fill="#ffffff" stroke="none" d="M 440.6236328125 280 L 468.06363281250003 280 L 479.8236328125 291.76 L 479.8236328125 329 L 440.6236328125 329"/></g><g transform="translate(-198,-94) scale(1,1)"><path fill="none" stroke="#000000" d="M 440.6236328125 280 L 468.06363281250003 280 L 479.8236328125 291.76 L 479.8236328125 329 L 440.6236328125 329 L 440.6236328125 280" stroke-miterlimit="10"/></g><g transform="translate(-198,-94) scale(1,1)"><path fill="none" stroke="#000000" d="M 468.06363281250003 280 L 468.06363281250003 291.76 L 479.8236328125 291.76 L 468.06363281250003 280" stroke-miterlimit="10"/></g><g transform="translate(-198,-94) scale(1,1)"><g><path fill="none" stroke="none"/><text fill="#000000" stroke="none" font-family="Arial" font-size="13px" font-style="normal" font-weight="bold" text-decoration="none" x="421.5791015625" y="348.5">README.md</text></g></g><g transform="translate(-198,-94) scale(1,1)"><path fill="#C0C0C0" stroke="none" d="M 562.2681640625 191 L 589.7081640625 191 L 601.4681640625 202.76000000000002 L 601.4681640625 240 L 562.2681640625 240" opacity="0.2"/></g><g transform="translate(-198,-94) scale(1,1)"><path fill="#ffffff" stroke="none" d="M 555.2681640625 184 L 582.7081640625 184 L 594.4681640625 195.76000000000002 L 594.4681640625 233 L 555.2681640625 233"/></g><g transform="translate(-198,-94) scale(1,1)"><path fill="none" stroke="#000000" d="M 555.2681640625 184 L 582.7081640625 184 L 594.4681640625 195.76000000000002 L 594.4681640625 233 L 555.2681640625 233 L 555.2681640625 184" stroke-miterlimit="10"/></g><g transform="translate(-198,-94) scale(1,1)"><path fill="none" stroke="#000000" d="M 582.7081640625 184 L 582.7081640625 195.76000000000002 L 594.4681640625 195.76000000000002 L 582.7081640625 184" stroke-miterlimit="10"/></g><g transform="translate(-198,-94) scale(1,1)"><g><path fill="none" stroke="none"/><text fill="#000000" stroke="none" font-family="Arial" font-size="13px" font-style="normal" font-weight="bold" text-decoration="none" x="552.8291015625" y="252.5">index.js</text></g></g><g transform="translate(-198,-94) scale(1,1)"><path fill="#C0C0C0" stroke="none" d="M 444.0708984375 183 L 471.5108984375 183 L 483.27089843749997 194.76 L 483.27089843749997 232 L 444.0708984375 232" opacity="0.2"/></g><g transform="translate(-198,-94) scale(1,1)"><path fill="#ffffff" stroke="none" d="M 437.0708984375 176 L 464.51089843750003 176 L 476.2708984375 187.76000000000002 L 476.2708984375 225 L 437.0708984375 225"/></g><g transform="translate(-198,-94) scale(1,1)"><path fill="none" stroke="#000000" d="M 437.0708984375 176 L 464.51089843750003 176 L 476.2708984375 187.76000000000002 L 476.2708984375 225 L 437.0708984375 225 L 437.0708984375 176" stroke-miterlimit="10"/></g><g transform="translate(-198,-94) scale(1,1)"><path fill="none" stroke="#000000" d="M 464.51089843750003 176 L 464.51089843750003 187.76000000000002 L 476.2708984375 187.76000000000002 L 464.51089843750003 176" stroke-miterlimit="10"/></g><g transform="translate(-198,-94) scale(1,1)"><g><path fill="none" stroke="none"/><text fill="#000000" stroke="none" font-family="Arial" font-size="13px" font-style="normal" font-weight="bold" text-decoration="none" x="428.85546875" y="244.5">LICENSE</text></g></g><g transform="translate(-198,-94) scale(1,1)"><path fill="#C0C0C0" stroke="none" d="M 288.403173828125 447 L 315.843173828125 447 L 327.60317382812497 458.76 L 327.60317382812497 496 L 288.403173828125 496" opacity="0.2"/></g><g transform="translate(-198,-94) scale(1,1)"><path fill="#ffffff" stroke="none" d="M 281.403173828125 440 L 308.84317382812503 440 L 320.603173828125 451.76 L 320.603173828125 489 L 281.403173828125 489"/></g><g transform="translate(-198,-94) scale(1,1)"><path fill="none" stroke="#000000" d="M 281.403173828125 440 L 308.84317382812503 440 L 320.603173828125 451.76 L 320.603173828125 489 L 281.403173828125 489 L 281.403173828125 440" stroke-miterlimit="10"/></g><g transform="translate(-198,-94) scale(1,1)"><path fill="none" stroke="#000000" d="M 308.84317382812503 440 L 308.84317382812503 451.76 L 320.603173828125 451.76 L 308.84317382812503 440" stroke-miterlimit="10"/></g><g transform="translate(-198,-94) scale(1,1)"><g><path fill="none" stroke="none"/><text fill="#000000" stroke="none" font-family="Arial" font-size="13px" font-style="normal" font-weight="bold" text-decoration="none" x="271.378662109375" y="508.5">index.html</text></g></g><g transform="translate(-198,-94) scale(1,1)"><path fill="#C0C0C0" stroke="none" d="M 318.251318359375 183 L 345.691318359375 183 L 357.45131835937497 194.76 L 357.45131835937497 232 L 318.251318359375 232" opacity="0.2"/></g><g transform="translate(-198,-94) scale(1,1)"><path fill="#ffffff" stroke="none" d="M 311.251318359375 176 L 338.69131835937503 176 L 350.451318359375 187.76000000000002 L 350.451318359375 225 L 311.251318359375 225"/></g><g transform="translate(-198,-94) scale(1,1)"><path fill="none" stroke="#000000" d="M 311.251318359375 176 L 338.69131835937503 176 L 350.451318359375 187.76000000000002 L 350.451318359375 225 L 311.251318359375 225 L 311.251318359375 176" stroke-miterlimit="10"/></g><g transform="translate(-198,-94) scale(1,1)"><path fill="none" stroke="#000000" d="M 338.69131835937503 176 L 338.69131835937503 187.76000000000002 L 350.451318359375 187.76000000000002 L 338.69131835937503 176" stroke-miterlimit="10"/></g><g transform="translate(-198,-94) scale(1,1)"><g><path fill="none" stroke="none"/><text fill="#000000" stroke="none" font-family="Arial" font-size="13px" font-style="normal" font-weight="bold" text-decoration="none" x="303.4072265625" y="244.5">travis.yml</text></g></g><g transform="translate(-198,-94) scale(1,1)"><path fill="#C0C0C0" stroke="none" d="M 679 665 L 726.72998046875 665 L 726.72998046875 698 L 679 698" opacity="0.2"/></g><g transform="translate(-198,-94) scale(1,1)"><path fill="#C0C0C0" stroke="none" d="M 679 665 L 689 655 L 736.72998046875 655 L 726.72998046875 665" opacity="0.2"/></g><g transform="translate(-198,-94) scale(1,1)"><path fill="#C0C0C0" stroke="none" d="M 736.72998046875 655 L 726.72998046875 665 L 726.72998046875 698 L 736.72998046875 688" opacity="0.2"/></g><g transform="translate(-198,-94) scale(1,1)"><path fill="#ffffff" stroke="none" d="M 672 658 L 719.72998046875 658 L 719.72998046875 691 L 672 691"/></g><g transform="translate(-198,-94) scale(1,1)"><path fill="#ffffff" stroke="none" d="M 672 658 L 682 648 L 729.72998046875 648 L 719.72998046875 658"/></g><g transform="translate(-198,-94) scale(1,1)"><path fill="#ffffff" stroke="none" d="M 729.72998046875 648 L 719.72998046875 658 L 719.72998046875 691 L 729.72998046875 681"/></g><g transform="translate(-198,-94) scale(1,1)"><path fill="none" stroke="#000000" d="M 672 658 L 719.72998046875 658 L 719.72998046875 691 L 672 691 L 672 658" stroke-miterlimit="10"/></g><g transform="translate(-198,-94) scale(1,1)"><path fill="none" stroke="#000000" d="M 672 658 L 682 648 L 729.72998046875 648 L 719.72998046875 658 L 672 658" stroke-miterlimit="10"/></g><g transform="translate(-198,-94) scale(1,1)"><path fill="none" stroke="#000000" d="M 729.72998046875 648 L 719.72998046875 658 L 719.72998046875 691 L 729.72998046875 681 L 729.72998046875 648" stroke-miterlimit="10"/></g><g transform="translate(-198,-94) scale(1,1)"><g><path fill="none" stroke="none"/><text fill="#000000" stroke="none" font-family="Arial" font-size="13px" font-style="normal" font-weight="bold" text-decoration="none" x="679.75" y="677.5">styles</text></g></g><g transform="translate(-198,-94) scale(1,1)"><path fill="#C0C0C0" stroke="none" d="M 394.2681640625 455 L 421.7081640625 455 L 433.46816406249997 466.76 L 433.46816406249997 504 L 394.2681640625 504" opacity="0.2"/></g><g transform="translate(-198,-94) scale(1,1)"><path fill="#ffffff" stroke="none" d="M 387.2681640625 448 L 414.70816406250003 448 L 426.4681640625 459.76 L 426.4681640625 497 L 387.2681640625 497"/></g><g transform="translate(-198,-94) scale(1,1)"><path fill="none" stroke="#000000" d="M 387.2681640625 448 L 414.70816406250003 448 L 426.4681640625 459.76 L 426.4681640625 497 L 387.2681640625 497 L 387.2681640625 448" stroke-miterlimit="10"/></g><g transform="translate(-198,-94) scale(1,1)"><path fill="none" stroke="#000000" d="M 414.70816406250003 448 L 414.70816406250003 459.76 L 426.4681640625 459.76 L 414.70816406250003 448" stroke-miterlimit="10"/></g><g transform="translate(-198,-94) scale(1,1)"><g><path fill="none" stroke="none"/><text fill="#000000" stroke="none" font-family="Arial" font-size="13px" font-style="normal" font-weight="bold" text-decoration="none" x="389.891357421875" y="516.5">test.js</text></g></g><g transform="translate(-198,-94) scale(1,1)"><path fill="#C0C0C0" stroke="none" d="M 313.08359375 295 L 340.52359375 295 L 352.28359374999997 306.76 L 352.28359374999997 344 L 313.08359375 344" opacity="0.2"/></g><g transform="translate(-198,-94) scale(1,1)"><path fill="#ffffff" stroke="none" d="M 306.08359375 288 L 333.52359375000003 288 L 345.28359375 299.76 L 345.28359375 337 L 306.08359375 337"/></g><g transform="translate(-198,-94) scale(1,1)"><path fill="none" stroke="#000000" d="M 306.08359375 288 L 333.52359375000003 288 L 345.28359375 299.76 L 345.28359375 337 L 306.08359375 337 L 306.08359375 288" stroke-miterlimit="10"/></g><g transform="translate(-198,-94) scale(1,1)"><path fill="none" stroke="#000000" d="M 333.52359375000003 288 L 333.52359375000003 299.76 L 345.28359375 299.76 L 333.52359375000003 288" stroke-miterlimit="10"/></g><g transform="translate(-198,-94) scale(1,1)"><g><path fill="none" stroke="none"/><text fill="#000000" stroke="none" font-family="Arial" font-size="13px" font-style="normal" font-weight="bold" text-decoration="none" x="287.378662109375" y="356.5">package.json</text></g></g><g transform="translate(-198,-94) scale(1,1)"><path fill="#C0C0C0" stroke="none" d="M 255 569 L 452 569 L 452 718 L 255 718" opacity="0.2"/></g><g transform="translate(-198,-94) scale(1,1)"><path fill="#C0C0C0" stroke="none" d="M 255 569 L 265 559 L 462 559 L 452 569" opacity="0.2"/></g><g transform="translate(-198,-94) scale(1,1)"><path fill="#C0C0C0" stroke="none" d="M 462 559 L 452 569 L 452 718 L 462 708" opacity="0.2"/></g><g transform="translate(-198,-94) scale(1,1)"><path fill="#ffffff" stroke="none" d="M 248 562 L 445 562 L 445 711 L 248 711"/></g><g transform="translate(-198,-94) scale(1,1)"><path fill="#ffffff" stroke="none" d="M 248 562 L 258 552 L 455 552 L 445 562"/></g><g transform="translate(-198,-94) scale(1,1)"><path fill="#ffffff" stroke="none" d="M 455 552 L 445 562 L 445 711 L 455 701"/></g><g transform="translate(-198,-94) scale(1,1)"><path fill="none" stroke="#000000" d="M 248 562 L 445 562 L 445 711 L 248 711 L 248 562" stroke-miterlimit="10"/></g><g transform="translate(-198,-94) scale(1,1)"><path fill="none" stroke="#000000" d="M 248 562 L 258 552 L 455 552 L 445 562 L 248 562" stroke-miterlimit="10"/></g><g transform="translate(-198,-94) scale(1,1)"><path fill="none" stroke="#000000" d="M 455 552 L 445 562 L 445 711 L 455 701 L 455 552" stroke-miterlimit="10"/></g><g transform="translate(-198,-94) scale(1,1)"><g><path fill="none" stroke="none"/><text fill="#000000" stroke="none" font-family="Arial" font-size="13px" font-style="normal" font-weight="bold" text-decoration="none" x="330.740478515625" y="581.5">demo</text></g></g><g transform="translate(-198,-94) scale(1,1)"><path fill="#C0C0C0" stroke="none" d="M 288.403173828125 615 L 315.843173828125 615 L 327.60317382812497 626.76 L 327.60317382812497 664 L 288.403173828125 664" opacity="0.2"/></g><g transform="translate(-198,-94) scale(1,1)"><path fill="#ffffff" stroke="none" d="M 281.403173828125 608 L 308.84317382812503 608 L 320.603173828125 619.76 L 320.603173828125 657 L 281.403173828125 657"/></g><g transform="translate(-198,-94) scale(1,1)"><path fill="none" stroke="#000000" d="M 281.403173828125 608 L 308.84317382812503 608 L 320.603173828125 619.76 L 320.603173828125 657 L 281.403173828125 657 L 281.403173828125 608" stroke-miterlimit="10"/></g><g transform="translate(-198,-94) scale(1,1)"><path fill="none" stroke="#000000" d="M 308.84317382812503 608 L 308.84317382812503 619.76 L 320.603173828125 619.76 L 308.84317382812503 608" stroke-miterlimit="10"/></g><g transform="translate(-198,-94) scale(1,1)"><g><path fill="none" stroke="none"/><text fill="#000000" stroke="none" font-family="Arial" font-size="13px" font-style="normal" font-weight="bold" text-decoration="none" x="271.378662109375" y="676.5">index.html</text></g></g><g transform="translate(-198,-94) scale(1,1)"><path fill="#C0C0C0" stroke="none" d="M 370.2681640625 615 L 397.7081640625 615 L 409.46816406249997 626.76 L 409.46816406249997 664 L 370.2681640625 664" opacity="0.2"/></g><g transform="translate(-198,-94) scale(1,1)"><path fill="#ffffff" stroke="none" d="M 363.2681640625 608 L 390.70816406250003 608 L 402.4681640625 619.76 L 402.4681640625 657 L 363.2681640625 657"/></g><g transform="translate(-198,-94) scale(1,1)"><path fill="none" stroke="#000000" d="M 363.2681640625 608 L 390.70816406250003 608 L 402.4681640625 619.76 L 402.4681640625 657 L 363.2681640625 657 L 363.2681640625 608" stroke-miterlimit="10"/></g><g transform="translate(-198,-94) scale(1,1)"><path fill="none" stroke="#000000" d="M 390.70816406250003 608 L 390.70816406250003 619.76 L 402.4681640625 619.76 L 390.70816406250003 608" stroke-miterlimit="10"/></g><g transform="translate(-198,-94) scale(1,1)"><g><path fill="none" stroke="none"/><text fill="#000000" stroke="none" font-family="Arial" font-size="13px" font-style="normal" font-weight="bold" text-decoration="none" x="360.8291015625" y="676.5">index.js</text></g></g><g transform="translate(-198,-94) scale(1,1)"><path fill="#C0C0C0" stroke="none" d="M 590.8345703125 455 L 618.2745703125 455 L 630.0345703125 466.76 L 630.0345703125 504 L 590.8345703125 504" opacity="0.2"/></g><g transform="translate(-198,-94) scale(1,1)"><path fill="#ffffff" stroke="none" d="M 583.8345703125 448 L 611.2745703125 448 L 623.0345703125 459.76 L 623.0345703125 497 L 583.8345703125 497"/></g><g transform="translate(-198,-94) scale(1,1)"><path fill="none" stroke="#000000" d="M 583.8345703125 448 L 611.2745703125 448 L 623.0345703125 459.76 L 623.0345703125 497 L 583.8345703125 497 L 583.8345703125 448" stroke-miterlimit="10"/></g><g transform="translate(-198,-94) scale(1,1)"><path fill="none" stroke="#000000" d="M 611.2745703125 448 L 611.2745703125 459.76 L 623.0345703125 459.76 L 611.2745703125 448" stroke-miterlimit="10"/></g><g transform="translate(-198,-94) scale(1,1)"><g><path fill="none" stroke="none"/><text fill="#000000" stroke="none" font-family="Arial" font-size="13px" font-style="normal" font-weight="bold" text-decoration="none" x="560.800537109375" y="516.5">minpopup.html</text></g></g><g transform="translate(-198,-94) scale(1,1)"><path fill="#C0C0C0" stroke="none" d="M 592.403173828125 559 L 619.843173828125 559 L 631.603173828125 570.76 L 631.603173828125 608 L 592.403173828125 608" opacity="0.2"/></g><g transform="translate(-198,-94) scale(1,1)"><path fill="#ffffff" stroke="none" d="M 585.403173828125 552 L 612.843173828125 552 L 624.603173828125 563.76 L 624.603173828125 601 L 585.403173828125 601"/></g><g transform="translate(-198,-94) scale(1,1)"><path fill="none" stroke="#000000" d="M 585.403173828125 552 L 612.843173828125 552 L 624.603173828125 563.76 L 624.603173828125 601 L 585.403173828125 601 L 585.403173828125 552" stroke-miterlimit="10"/></g><g transform="translate(-198,-94) scale(1,1)"><path fill="none" stroke="#000000" d="M 612.843173828125 552 L 612.843173828125 563.76 L 624.603173828125 563.76 L 612.843173828125 552" stroke-miterlimit="10"/></g><g transform="translate(-198,-94) scale(1,1)"><g><path fill="none" stroke="none"/><text fill="#000000" stroke="none" font-family="Arial" font-size="13px" font-style="normal" font-weight="bold" text-decoration="none" x="575.378662109375" y="620.5">index.html</text></g></g><g transform="translate(-198,-94) scale(1,1)"><path fill="#C0C0C0" stroke="none" d="M 591.62998046875 655 L 619.06998046875 655 L 630.82998046875 666.76 L 630.82998046875 704 L 591.62998046875 704" opacity="0.2"/></g><g transform="translate(-198,-94) scale(1,1)"><path fill="#ffffff" stroke="none" d="M 584.62998046875 648 L 612.06998046875 648 L 623.82998046875 659.76 L 623.82998046875 697 L 584.62998046875 697"/></g><g transform="translate(-198,-94) scale(1,1)"><path fill="none" stroke="#000000" d="M 584.62998046875 648 L 612.06998046875 648 L 623.82998046875 659.76 L 623.82998046875 697 L 584.62998046875 697 L 584.62998046875 648" stroke-miterlimit="10"/></g><g transform="translate(-198,-94) scale(1,1)"><path fill="none" stroke="#000000" d="M 612.06998046875 648 L 612.06998046875 659.76 L 623.82998046875 659.76 L 612.06998046875 648" stroke-miterlimit="10"/></g><g transform="translate(-198,-94) scale(1,1)"><g><path fill="none" stroke="none"/><text fill="#000000" stroke="none" font-family="Arial" font-size="13px" font-style="normal" font-weight="bold" text-decoration="none" x="568.10546875" y="716.5">index.js.html</text></g></g></g></svg>